<svg
  width="22"
  height="20"
  viewBox="0 0 22 20"
  fill="none"
  xmlns="http://www.w3.org/2000/svg"
>
  <path
    d="M17.875 6V4H15.875V2.5H17.875V0.5H19.375V2.5H21.375V4H19.375V6H17.875ZM2.175 19.5C1.675 19.5 1.25 19.325 0.9 18.975C0.55 18.625 0.375 18.2 0.375 17.7V6.3C0.375 5.8 0.55 5.375 0.9 5.025C1.25 4.675 1.675 4.5 2.175 4.5H5.225L7.075 2.5H13.125V4H7.75L5.9 6H2.175C2.09167 6 2.021 6.029 1.963 6.087C1.90433 6.14567 1.875 6.21667 1.875 6.3V17.7C1.875 17.7833 1.90433 17.8543 1.963 17.913C2.021 17.971 2.09167 18 2.175 18H17.575C17.6583 18 17.7293 17.971 17.788 17.913C17.846 17.8543 17.875 17.7833 17.875 17.7V8.75H19.375V17.7C19.375 18.2 19.2 18.625 18.85 18.975C18.5 19.325 18.075 19.5 17.575 19.5H2.175ZM9.875 16.125C11.025 16.125 12 15.725 12.8 14.925C13.6 14.125 14 13.15 14 12C14 10.85 13.6 9.875 12.8 9.075C12 8.275 11.025 7.875 9.875 7.875C8.725 7.875 7.75 8.275 6.95 9.075C6.15 9.875 5.75 10.85 5.75 12C5.75 13.15 6.15 14.125 6.95 14.925C7.75 15.725 8.725 16.125 9.875 16.125ZM9.875 14.625C9.14167 14.625 8.52067 14.371 8.012 13.863C7.504 13.3543 7.25 12.7333 7.25 12C7.25 11.2667 7.504 10.6457 8.012 10.137C8.52067 9.629 9.14167 9.375 9.875 9.375C10.6083 9.375 11.2293 9.629 11.738 10.137C12.246 10.6457 12.5 11.2667 12.5 12C12.5 12.7333 12.246 13.3543 11.738 13.863C11.2293 14.371 10.6083 14.625 9.875 14.625Z"
    fill="#1D1D1D"
  />
</svg>
